<?xml version="1.0" encoding="utf-8"?>
<!-- Generator: Adobe Illustrator 23.1.0, SVG Export Plug-In . SVG Version: 6.00 Build 0)  -->
<svg version="1.1" id="Layer_1" xmlns="http://www.w3.org/2000/svg" xmlns:xlink="http://www.w3.org/1999/xlink" x="0px" y="0px"
	 viewBox="0 0 597.6 806.4" style="enable-background:new 0 0 597.6 806.4;" xml:space="preserve">
<g>
	<path d="M172.96,528.75c-34.13,0-65.7-12.49-89.06-35.26c-23.67-23.08-36.9-54.75-37.26-89.18c-0.36-34.1,12.13-65.88,35.17-89.47
		c23.04-23.6,54.46-36.8,88.48-37.18c47.41-0.5,89.41,22.31,112.35,61.07l0.2,0.33l-58.8,59.49l-0.11-1.05
		c-2.72-26.34-24.49-45.22-51.82-44.94c-28.14,0.31-49.96,22.66-49.66,50.87c0.14,13.82,5.46,26.49,14.96,35.69
		c9.36,9.06,22.04,14.03,35.77,14.03c0.21,0,0.42,0,0.64,0c13.98-0.16,26.81-5.41,36.15-14.79c1.71-1.72,5.01-5.04,5.01-5.04
		l119.57-120.26l0.03,0.03c22.87-22.48,53.63-35.05,86.68-35.42c35.15-0.37,67.74,12.07,91.8,35.1
		c24.07,23.02,37.53,54.63,37.91,89.01c0.38,34.22-12.45,66.08-36.13,89.7c-23.62,23.57-55.82,36.77-90.68,37.16
		c-26.95,0.31-52.36-7.24-73.42-21.8c-20.23-13.99-35.66-33.82-44.68-57.39l-41.91,42.15c-0.13,0.13-0.27,0.26-0.4,0.39l-0.32,0.31
		c-23.6,23.14-55.16,36.1-88.88,36.47C174.01,528.75,173.48,528.75,172.96,528.75z M171.89,278.65c-0.53,0-1.06,0-1.59,0.01
		c-69.51,0.77-123.39,55.96-122.66,125.64c0.36,34.16,13.48,65.59,36.96,88.48c23.52,22.94,55.46,35.36,89.92,34.97
		c33.46-0.37,64.78-13.23,88.19-36.19l0.34-0.32c0.13-0.12,0.26-0.24,0.38-0.37l43-43.25l0.27,0.73
		c18.43,49.01,62.74,79.28,115.86,79.28c0.52,0,1.04,0,1.57-0.01c71.32-0.8,126.58-56.08,125.82-125.85
		c-0.38-34.1-13.73-65.46-37.6-88.29c-23.51-22.49-55.25-34.83-89.51-34.83c-0.53,0-1.06,0-1.59,0.01
		c-32.96,0.37-63.62,12.96-86.34,35.47l-0.35,0.35l-0.02-0.02L215.67,434.01c0,0-3.3,3.32-4.96,4.99
		c-9.57,9.62-22.65,14.97-36.89,15.13c-14.22,0.15-27.42-4.92-37.12-14.3c-9.7-9.38-15.12-22.31-15.27-36.4
		c-0.3-28.77,21.95-51.56,50.65-51.88c27.52-0.34,49.48,18.47,52.71,44.79l56.78-57.44C259.04,301.08,218.15,278.65,171.89,278.65z
		 M424.13,454.14c-13.99,0-26.92-5.07-36.47-14.31c-9.7-9.38-15.12-22.31-15.27-36.4c-0.3-28.77,21.95-51.56,50.65-51.88
		c14.37-0.16,27.74,4.94,37.6,14.38c9.86,9.43,15.38,22.38,15.53,36.46c0.32,29.17-21.77,51.41-51.4,51.74
		C424.56,454.14,424.34,454.14,424.13,454.14z M423.7,352.55c-0.21,0-0.43,0-0.64,0c-28.14,0.31-49.96,22.66-49.66,50.87
		c0.14,13.82,5.46,26.49,14.96,35.69c9.51,9.2,22.47,14.21,36.41,14.02c29.05-0.32,50.72-22.13,50.41-50.73
		c-0.15-13.81-5.56-26.5-15.22-35.75C450.43,357.55,437.58,352.55,423.7,352.55z"/>
</g>
</svg>
