<?xml version="1.0" encoding="utf-8"?>
<!-- Generator: Adobe Illustrator 21.0.2, SVG Export Plug-In . SVG Version: 6.00 Build 0)  -->
<svg version="1.1" id="Layer_1" xmlns="http://www.w3.org/2000/svg" xmlns:xlink="http://www.w3.org/1999/xlink" x="0px" y="0px"
	 viewBox="0 0 184 90.7" style="enable-background:new 0 0 184 90.7;" xml:space="preserve">
<style type="text/css">
	.st0{fill:#F7F7F7;}
</style>
<path id="Path_1" class="st0" d="M92.5-91c-6,0-11.8,2.4-16.1,6.6l0,0l-8,8l-14.1,14c0,0-0.6,0.6-0.9,0.9c0,0,0,0,0,0
	c-1.8,1.8-4.2,2.8-6.8,2.7c-5.4,0.1-9.6-3.9-9.6-9.2c-0.1-5.1,3.9-9.3,9.1-9.4c0.1,0,0.2,0,0.2,0c5.1-0.1,9.2,3.5,9.7,8.3l10.7-10.8
	C62.7-86.7,55-91.1,46-91c-13,0.1-23,10.3-22.8,23.2c0.1,13,10.3,22.9,23.6,22.8c6.1,0,12-2.4,16.4-6.7c0,0,0.1-0.1,0.1-0.1l0.1-0.1
	l7.7-7.7c3.3,8.8,11.5,14.8,21.9,14.6c13.3-0.1,23.6-10.3,23.4-23.2C116.3-81.3,105.9-91.1,92.5-91 M93.2-58.7
	c-5.4,0.1-9.6-3.9-9.6-9.2c-0.1-5.1,3.9-9.3,9.1-9.4c0.1,0,0.2,0,0.2,0c5.5-0.1,9.7,4,9.8,9.3C102.7-62.9,98.6-58.8,93.2-58.7
	 M54.8-72.8 M55.8-70.3 M149.8-34.8"/>
<polyline class="st0" points="170.5,-39.3 182.5,-51.3 187,-45.3 174.8,-33 "/>
</svg>
